User Type,Username,Date,Text
,emarcio,2013-02-11T01:50Z,Valeu por disponibilizar!!! Obrigado!
,RBSNLA,2013-03-23T14:28Z,"V=10 A=10 Otima qualidade,as criancas adoraram,parabens Thespeed13!!!SEMEANDO!!!!

Format                                   : AVI
Format/Info                              : Audio Video Interleave
File size                                : 702 MiB
Duration                                 : 1h 25mn
Overall bit rate                         : 1 141 Kbps
Writing application                      : FairUse Wizard - http://fairusewizard.com
Writing library                          : The best and REALLY easy backup tool

Video
ID                                       : 0
Format                                   : MPEG-4 Visual
Format profile                           : Advanced Simple@L5
Format settings, BVOP                    : 2
Format settings, QPel                    : No
Format settings, GMC                     : No warppoints
Format settings, Matrix                  : Default (H.263)
Muxing mode                              : Packed bitstream
Codec ID                                 : XVID
Codec ID/Hint                            : XviD
Duration                                 : 1h 25mn
Bit rate                                 : 871 Kbps
Width                                    : 624 pixels
Height                                   : 336 pixels
Display aspect ratio                     : 1.85:1
Frame rate                               : 23.976 fps
Color space                              : YUV
Chroma subsampling                       : 4:2:0
Bit depth                                : 8 bits
Scan type                                : Progressive
Compression mode                         : Lossy
Bits/(Pixel*Frame)                       : 0.173
Stream size                              : 536 MiB (76%)
Writing library                          : XviD 1.2.1 (UTC 2008-12-04)

Audio #1
ID                                       : 1
Format                                   : MPEG Audio
Format version                           : Version 1
Format profile                           : Layer 3
Mode                                     : Joint stereo
Mode extension                           : MS Stereo
Codec ID                                 : 55
Codec ID/Hint                            : MP3
Duration                                 : 1h 25mn
Bit rate mode                            : Constant
Bit rate                                 : 128 Kbps
Channel(s)                               : 2 channels
Sampling rate                            : 48.0 KHz
Compression mode                         : Lossy
Stream size                              : 78.7 MiB (11%)
Alignment                                : Aligned on interleaves
Interleave, duration                     : 42 ms (1.00 video frame)
Interleave, preload duration             : 504 ms
Writing library                          : LAME3.97 
Encoding settings                        : -m j -V 4 -q 2 -lowpass 17 -b 128

Audio #2
ID                                       : 2
Format                                   : MPEG Audio
Format version                           : Version 1
Format profile                           : Layer 3
Mode                                     : Joint stereo
Mode extension                           : MS Stereo
Codec ID                                 : 55
Codec ID/Hint                            : MP3
Duration                                 : 1h 25mn
Bit rate mode                            : Constant
Bit rate                                 : 128 Kbps
Channel(s)                               : 2 channels
Sampling rate                            : 48.0 KHz
Compression mode                         : Lossy
Stream size                              : 78.7 MiB (11%)
Alignment                                : Aligned on interleaves
Interleave, duration                     : 42 ms (1.00 video frame)
Interleave, preload duration             : 504 ms
Writing library                          : LAME3.97 
Encoding settings                        : -m j -V 4 -q 2 -lowpass 17 -b 128"
